<svg xmlns="http://www.w3.org/2000/svg" width="2200" height="2800" viewBox="0 0 1100 1400" role="img" aria-label="City night neon high resolution">
  <defs>
    <linearGradient id="night" x1="0%" y1="0%" x2="100%" y2="100%">
      <stop offset="0%" stop-color="#0b0d24" />
      <stop offset="100%" stop-color="#142346" />
    </linearGradient>
    <linearGradient id="neon" x1="0%" y1="0%" x2="100%" y2="0%">
      <stop offset="0%" stop-color="#7cffe4" />
      <stop offset="100%" stop-color="#ff6fb6" />
    </linearGradient>
  </defs>
  <rect width="1100" height="1400" fill="url(#night)" />
  <rect x="110" y="250" width="190" height="660" rx="22" fill="#101734" opacity="0.82" />
  <rect x="340" y="210" width="200" height="740" rx="22" fill="#131c3d" opacity="0.92" />
  <rect x="580" y="250" width="170" height="690" rx="22" fill="#0f1837" opacity="0.86" />
  <rect x="790" y="250" width="150" height="560" rx="22" fill="#0d162f" opacity="0.84" />
  <rect x="120" y="760" width="220" height="50" rx="14" fill="url(#neon)" opacity="0.95" />
  <rect x="350" y="670" width="220" height="50" rx="14" fill="url(#neon)" opacity="0.95" />
  <rect x="590" y="730" width="180" height="50" rx="14" fill="url(#neon)" opacity="0.95" />
  <rect x="800" y="630" width="150" height="50" rx="14" fill="url(#neon)" opacity="0.95" />
  <path d="M0 1040 Q260 980 520 1040 T1100 1020 L1100 1400 H0 Z" fill="#0c1126" opacity="0.9" />
  <path d="M0 1160 Q260 1100 520 1160 T1100 1120 L1100 1400 H0 Z" fill="#0a0d1f" opacity="0.94" />
  <text x="70" y="220" fill="#e3e8ff" font-family="Georgia, 'DM Serif Text', serif" font-size="64" font-weight="700">Neon rain</text>
  <text x="70" y="300" fill="#b5c1d8" font-family="'Manrope', 'Segoe UI', sans-serif" font-size="28" opacity="0.9">Night stitched with color</text>
</svg>
